first trial
nRows=22
nColumns=38

# SIMM Motion File Header:
name Sujet_05_velo_60.mvnx
datacolumns 38
datarows 22
otherdata 1
range 4.0170 4.3670
endheader
time pelvis_tilt  pelvis_list  pelvis_rotation  pelvis_tx  pelvis_ty  pelvis_tz  hip_flexion_r  hip_adduction_r  hip_rotation_r  knee_angle_r  ankle_angle_r  subtalar_angle_r  mtp_angle_r  hip_flexion_l  hip_adduction_l  hip_rotation_l  knee_angle_l  ankle_angle_l  subtalar_angle_l  mtp_angle_l  lumbar_extension  lumbar_bending  lumbar_rotation  arm_flex_r  arm_add_r  arm_rot_r  elbow_flex_r  pro_sup_r  wrist_flex_r  wrist_dev_r  arm_flex_l  arm_add_l  arm_rot_l  elbow_flex_l  pro_sup_l  wrist_flex_l  wrist_dev_l
4.0170	-5.1489	0.6215	-85.9706	0.0000	1.2500	-0.0000	50.1204	-0.7242	-8.2374	76.0178	-18.7764	1.4564	-0.0000	63.9585	3.1481	-12.3006	62.8269	-4.5913	10.9535	0.0000	-24.3452	1.3019	-2.3860	92.8462	-10.4087	22.3500	4.3003	64.3351	-56.9202	-34.9190	99.6165	-11.2705	26.4796	-0.2912	60.3036	-42.0296	-22.5114	
4.0340	-5.1970	0.2438	-86.4170	0.0000	1.2500	-0.0000	52.2482	-0.4434	-8.1457	79.6012	-18.0951	1.5240	0.0000	61.1294	2.5688	-12.6032	58.6782	-5.4998	11.5470	-0.0000	-24.3180	1.5217	-2.2162	92.8898	-10.3038	22.6030	4.2601	64.5529	-56.9456	-34.9092	99.4920	-11.3833	26.3774	-0.2735	59.9668	-42.1937	-22.6714	
4.0500	-5.2472	-0.1312	-86.8575	0.0000	1.2500	-0.0000	54.4254	-0.1701	-8.0179	82.9694	-17.3796	1.6124	-0.0000	58.2458	1.9941	-12.9246	54.5802	-6.5909	12.0928	0.0000	-24.2875	1.7325	-2.0271	92.9066	-10.2179	22.8369	4.2355	64.7627	-56.9726	-34.9027	99.3435	-11.5046	26.2889	-0.2296	59.6459	-42.3334	-22.8226	
4.0670	-5.2969	-0.5085	-87.2902	0.0000	1.2500	-0.0000	56.6540	0.0965	-7.8321	86.1098	-16.6306	1.7361	0.0000	55.2895	1.4363	-13.2690	50.5097	-7.8893	12.5671	-0.0000	-24.2525	1.9331	-1.8115	92.9066	-10.1620	23.0351	4.2293	64.9707	-57.0006	-34.8989	99.1665	-11.6467	26.2170	-0.1463	59.3620	-42.4351	-22.9603	
4.0830	-5.3488	-0.8830	-87.7173	0.0000	1.2500	-0.0000	58.9333	0.3600	-7.6107	89.0353	-15.8472	1.8901	0.0000	52.2773	0.8868	-13.6345	46.4901	-9.3707	13.0009	-0.0000	-24.2139	2.1247	-1.5766	92.8806	-10.1258	23.2145	4.2385	65.1707	-57.0301	-34.8984	98.9657	-11.7976	26.1586	-0.0354	59.0944	-42.5123	-23.0890	
4.1000	-5.3984	-1.2358	-88.1161	0.0000	1.2500	-0.0000	61.2259	0.6163	-7.3994	91.6789	-15.0797	1.9912	0.0000	49.3614	0.3362	-14.0249	42.7326	-10.9134	13.4616	-0.0000	-24.1821	2.3047	-1.3427	92.8445	-10.0950	23.3581	4.2662	65.3789	-57.0639	-34.8906	98.7556	-11.9304	26.1055	0.0852	58.8269	-42.5646	-23.1966	
4.1170	-5.4452	-1.5645	-88.4870	0.0000	1.2500	-0.0000	63.5309	0.8667	-7.2084	94.0475	-14.2939	1.9792	-0.0000	46.5402	-0.2246	-14.4332	39.2197	-12.5791	14.0277	-0.0000	-24.1600	2.4724	-1.1080	92.8043	-10.0709	23.4536	4.3249	65.6171	-57.1102	-34.8652	98.5314	-12.0354	26.0639	0.2309	58.5400	-42.5842	-23.2741	
4.1330	-5.4906	-1.8714	-88.8295	0.0000	1.2500	-0.0000	65.8492	1.1086	-7.0226	96.1360	-13.5257	1.9110	0.0000	43.8129	-0.7864	-14.8577	35.9727	-14.3068	14.6220	-0.0000	-24.1442	2.6282	-0.8743	92.7543	-10.0524	23.5132	4.4023	65.8637	-57.1607	-34.8324	98.2987	-12.1226	26.0283	0.3862	58.2530	-42.5786	-23.3301	
4.1500	-5.5329	-2.1431	-89.1203	0.0000	1.2500	-0.0000	68.1460	1.3288	-6.8446	97.8593	-12.9313	1.8762	0.0000	41.3333	-1.3343	-15.2974	33.2571	-15.7911	15.0791	-0.0000	-24.1350	2.7701	-0.6662	92.6915	-10.0221	23.5564	4.4635	66.0698	-57.1937	-34.8121	98.0875	-12.1956	25.9724	0.4858	58.0074	-42.5699	-23.3789	
4.1670	-5.5711	-2.3829	-89.3470	0.0000	1.2500	-0.0000	70.4498	1.5227	-6.6654	99.2000	-12.6090	1.9076	0.0000	39.1173	-1.8931	-15.7694	31.1066	-16.9344	15.3239	0.0000	-24.1331	2.9033	-0.4922	92.6075	-9.9762	23.5925	4.4912	66.2112	-57.1964	-34.8149	97.9074	-12.2512	25.8881	0.4885	57.8117	-42.5687	-23.4288	
4.1830	-5.6072	-2.5871	-89.5217	0.0000	1.2500	-0.0000	72.7314	1.6952	-6.4830	100.1756	-12.4610	1.9659	0.0000	37.1475	-2.4460	-16.2379	29.4764	-17.8342	15.4453	0.0000	-24.1371	3.0225	-0.3440	92.5107	-9.9184	23.6122	4.5024	66.3119	-57.1817	-34.8301	97.7489	-12.2930	25.7837	0.4347	57.6573	-42.5645	-23.4716	
4.2000	-5.6449	-2.7334	-89.6582	0.0000	1.2500	-0.0000	74.8696	1.8480	-6.3060	100.7539	-12.3496	2.0354	0.0000	35.5291	-2.9229	-16.6109	28.5131	-18.4779	15.5189	0.0000	-24.1448	3.1103	-0.2214	92.4232	-9.8417	23.6063	4.5142	66.3947	-57.1660	-34.8457	97.6129	-12.3348	25.6569	0.3813	57.5605	-42.5480	-23.4963	
4.2160	-5.6869	-2.8109	-89.7493	0.0000	1.2500	-0.0000	76.8889	1.9688	-6.1049	100.9323	-12.2834	2.1308	-0.0000	34.2941	-3.3181	-16.8609	28.2761	-18.8285	15.5429	-0.0000	-24.1554	3.1619	-0.1258	92.3462	-9.7341	23.5610	4.5323	66.4665	-57.1508	-34.8595	97.4931	-12.3800	25.4774	0.3416	57.5540	-42.5125	-23.4953	
4.2330	-5.7310	-2.8302	-89.8020	0.0000	1.2500	-0.0000	78.7638	2.0747	-5.8988	100.7138	-12.2542	2.2346	-0.0000	33.4132	-3.6524	-16.9935	28.7064	-18.9220	15.5061	-0.0000	-24.1692	3.1821	-0.0559	92.2789	-9.6072	23.4904	4.5510	66.5205	-57.1347	-34.8737	97.3958	-12.4258	25.2756	0.3024	57.6050	-42.4645	-23.4761	
4.2500	-5.7730	-2.8002	-89.8507	0.0000	1.2500	-0.0000	80.2974	2.2068	-5.7726	100.0751	-12.0990	2.2886	-0.0000	32.9014	-3.8976	-16.9634	29.7795	-18.8549	15.4620	-0.0000	-24.1849	3.1674	-0.0082	92.2401	-9.4897	23.4275	4.5699	66.5595	-57.1298	-34.8838	97.3398	-12.4767	25.1407	0.2805	57.6312	-42.4143	-23.4503	
4.2670	-5.8214	-2.7212	-89.9172	0.0000	1.2500	-0.0000	81.4467	2.3963	-5.7538	98.9686	-11.7205	2.2725	0.0000	32.8126	-4.0415	-16.7202	31.5820	-18.6131	15.4144	0.0000	-24.2035	3.1129	0.0218	92.2461	-9.3900	23.3811	4.5870	66.5936	-57.1438	-34.8874	97.3458	-12.5380	25.1272	0.2932	57.5806	-42.3644	-23.4217	
4.2830	-5.8679	-2.5927	-89.9797	0.0000	1.2500	-0.0000	82.2545	2.6068	-5.8130	97.4429	-11.2158	2.2166	0.0000	33.0951	-4.0979	-16.3084	34.0406	-18.2106	15.3488	-0.0000	-24.2241	3.0237	0.0295	92.2806	-9.2997	23.3425	4.6042	66.6125	-57.1690	-34.8869	97.3936	-12.6046	25.1807	0.3229	57.5052	-42.3122	-23.3866	
4.3000	-5.8833	-2.4244	89.9932	0.0000	1.2500	-0.0000	82.6536	2.7732	-5.9503	95.6183	-10.7129	2.1378	-0.0000	33.6052	-4.0752	-15.8282	36.8899	-17.7856	15.2952	0.0000	-24.2429	2.9116	0.0054	92.3133	-9.2217	23.3185	4.6273	66.5888	-57.1952	-34.8850	97.4403	-12.6655	25.2274	0.3339	57.4780	-42.2610	-23.3460	
4.3170	-5.8532	-2.2135	-89.9917	0.0000	1.2500	-0.0000	82.5976	2.8856	-6.1832	93.5079	-10.1827	1.9986	-0.0000	34.3262	-3.9622	-15.2838	40.1272	-17.3965	15.2813	-0.0000	-24.2587	2.7761	-0.0570	92.3360	-9.1585	23.3201	4.6663	66.5016	-57.2202	-34.8797	97.4659	-12.7181	25.2343	0.3043	57.5306	-42.2153	-23.3031	
4.3340	-5.7917	-1.9626	-89.9414	0.0000	1.2500	-0.0000	82.1336	2.9529	-6.4908	91.0988	-9.6543	1.8370	0.0000	35.2741	-3.7621	-14.6782	43.7674	-16.9842	15.2741	0.0000	-24.2731	2.6177	-0.1509	92.3569	-9.1075	23.3363	4.7113	66.3716	-57.2462	-34.8730	97.4906	-12.7649	25.2344	0.2563	57.6316	-42.1705	-23.2546	
4.3500	-5.7115	-1.6892	-89.8463	0.0000	1.2500	-0.0000	81.3352	2.9384	-6.8168	88.4710	-9.3432	1.7733	-0.0000	36.3539	-3.5083	-14.1103	47.5607	-16.5112	15.2155	0.0000	-24.2868	2.4499	-0.2651	92.3702	-9.0642	23.3413	4.7380	66.2339	-57.2697	-34.8726	97.5315	-12.8023	25.2534	0.2210	57.7594	-42.1161	-23.1911	
4.3670	-5.6052	-1.3957	-89.7018	0.0000	1.2500	-0.0000	80.2021	2.8192	-7.1429	85.6336	-9.3540	1.8505	-0.0000	37.5412	-3.1972	-13.6115	51.4724	-15.9789	15.0896	-0.0000	-24.3019	2.2764	-0.3984	92.3716	-9.0247	23.3292	4.7283	66.1024	-57.2869	-34.8809	97.5973	-12.8310	25.3044	0.2080	57.9073	-42.0440	-23.1052	
